# xmcd CD database file
#
# Track frame offsets:
#	150
#	22737
#	43197
#
# Disc length: 875 seconds
#
# Revision: 0
# Processed by: cddbd v1.5.1PL2 Copyright (c) Steve Scherf et al.
# Submitted via: CDex 1.51
#
DISCID=19036903
DTITLE=TUBE - Yheei！
DYEAR=1999
DGENRE=JPop
TTITLE0=Yheei！
TTITLE1=楽園
TTITLE2=YHeei！(original karaoke)
EXTD=YEAR: 1999
EXTT0=
EXTT1=
EXTT2=
PLAYORDER=
